<svg version="1.1" id="Layer_1" xmlns="http://www.w3.org/2000/svg" xmlns:xlink="http://www.w3.org/1999/xlink" x="0px" y="0px"
	 viewBox="0 0 2669.344 1323.45" enable-background="new 0 0 2669.344 1323.45" xml:space="preserve">
<path d="M492.073,80.314c325.297-79.907,603.77,142.429,831.194,386.015c7.742,6.774,19.678,25.356,28.904,10.452
	C1511.538,299.8,1710.156,30.565,2044.392,67.54c196.919,24.584,358.505,104.3,450.082,300.657
	c-23.033-7.549-42.195-23.549-65.551-30.259c-3.355,22.84-5.419,45.808-8.258,68.648c-44.299-47.646-91.804-180.66-341.11-217.75
	c-281.176-41.106-442.813,187.015-620.67,414.016c-2.774,4.71-11.42,11.42-4.516,16.71
	c120.972,126.005,235.558,262.333,384.338,356.982C2184,1200.806,2547.982,866.74,2474.925,552.268
	c-20.71,9.162-39.356,21.936-58.906,33.163c5.936-75.035,17.549-149.619,22.775-224.719
	c59.744,32.066,118.457,66.648,175.878,102.778c-19.936,14.968-41.873,26.84-62.97,40.002
	c133.08,494.333-352.455,962.381-885.97,659.381c-145.425-83.229-265.752-201.943-386.08-316.787l-4-0.645
	c-155.776,174.521-356.295,441.966-678.994,411.371C-104.664,1193.979-108.953,216.922,492.073,80.314 M147.349,626.852
	c-33.506,222.254,128.685,443.446,312.786,489.955c315.028,83.803,472.102-81.827,709.447-399.887
	c-113.096-151.794-320.918-368.935-501.568-427.501C431.039,217.017,187.961,391.715,147.349,626.852z"/>
</svg>
